<svg width="400" height="400" viewBox="0 0 400 400" fill="none" xmlns="http://www.w3.org/2000/svg">
<g id="favicon">
<rect width="400" height="400" rx="200" fill="#3D3D3D"/>
<path id="shape" d="M180 105L235.84 123.143L270.35 170.643V229.357L235.84 276.857L180 295L124.16 276.857L89.6496 229.357V170.643L124.16 123.143L180 105Z" fill="#FF8FE0"/>
<g id="ED">
<mask id="path-3-outside-1_2_9" maskUnits="userSpaceOnUse" x="117" y="147" width="184" height="103" fill="black">
<rect fill="white" x="117" y="147" width="184" height="103"/>
<path d="M131.54 242C130.175 242 129.151 241.445 128.468 240.336C127.871 239.227 127.572 237.776 127.572 235.984C127.572 233.509 127.956 230.608 128.724 227.28C129.577 223.952 130.601 220.496 131.796 216.912C133.076 213.328 134.356 209.915 135.636 206.672C136.916 203.344 138.025 200.528 138.964 198.224H131.924C131.241 198.224 130.9 197.968 130.9 197.456C130.9 196.944 131.284 196.261 132.052 195.408C132.82 194.469 133.716 193.659 134.74 192.976C135.764 192.293 136.617 191.952 137.3 191.952H141.652C143.785 186.917 145.791 182.224 147.668 177.872C149.545 173.435 151.892 168.741 154.708 163.792C155.391 162.597 156.031 161.488 156.628 160.464C157.225 159.355 157.908 158.373 158.676 157.52C154.068 158.117 149.332 159.013 144.468 160.208C139.689 161.403 135.423 162.939 131.668 164.816C127.913 166.693 125.268 168.912 123.732 171.472C123.647 171.728 123.476 171.856 123.22 171.856C123.049 171.856 122.921 171.685 122.836 171.344C122.665 171.003 122.623 170.619 122.708 170.192C123.561 167.973 124.628 165.84 125.908 163.792C127.188 161.744 128.425 160.123 129.62 158.928C131.497 156.965 134.057 155.557 137.3 154.704C140.543 153.851 143.871 153.296 147.284 153.04C150.783 152.784 153.769 152.656 156.244 152.656H181.588C184.575 152.656 187.22 152.571 189.524 152.4C191.913 152.144 193.919 152.016 195.54 152.016C198.185 152.016 199.721 152.656 200.148 153.936C200.233 154.277 200.276 154.619 200.276 154.96C200.361 155.216 200.404 155.557 200.404 155.984C200.404 157.691 200.02 159.653 199.252 161.872C198.484 164.005 197.631 166.096 196.692 168.144C195.839 170.107 195.156 171.728 194.644 173.008C194.559 173.435 194.303 173.733 193.876 173.904C193.535 174.075 193.193 174.16 192.852 174.16C192.425 174.16 192.041 174.075 191.7 173.904C191.444 173.733 191.359 173.179 191.444 172.24C191.615 171.216 191.828 170.064 192.084 168.784C192.34 167.504 192.468 166.395 192.468 165.456C192.468 162.725 191.359 160.635 189.14 159.184C187.007 157.648 184.319 156.88 181.076 156.88C178.687 156.88 176.724 157.093 175.188 157.52C173.652 157.861 172.415 158.757 171.476 160.208C168.063 165.243 164.948 170.405 162.132 175.696C159.401 180.987 156.841 186.405 154.452 191.952H187.86C188.116 191.952 187.945 192.464 187.348 193.488C186.836 194.512 186.153 195.579 185.3 196.688C184.532 197.712 183.849 198.224 183.252 198.224H151.636C150.697 200.613 149.588 203.515 148.308 206.928C147.028 210.341 145.833 213.712 144.724 217.04C143.7 220.368 142.889 223.227 142.292 225.616C141.78 227.664 141.524 229.499 141.524 231.12C141.524 233.253 142.164 234.875 143.444 235.984C144.809 237.093 147.156 237.648 150.484 237.648C155.092 237.648 159.7 237.477 164.308 237.136C168.916 236.709 173.439 235.856 177.876 234.576C181.716 233.467 185.129 231.973 188.116 230.096C191.188 228.219 193.407 225.872 194.772 223.056C194.943 222.715 195.199 222.544 195.54 222.544C196.137 222.544 196.436 223.013 196.436 223.952C196.436 224.123 196.393 224.336 196.308 224.592C196.308 224.848 196.265 225.147 196.18 225.488C195.497 227.707 194.687 229.669 193.748 231.376C192.809 233.083 191.828 234.533 190.804 235.728C188.415 238.629 185.343 240.421 181.588 241.104C177.833 241.701 174.079 242 170.324 242H131.54ZM221.441 243.536C218.966 243.109 216.662 242.512 214.529 241.744C212.396 240.891 210.561 239.824 209.025 238.544C207.916 237.52 207.105 236.325 206.593 234.96C206.081 233.509 205.825 231.973 205.825 230.352C205.825 227.621 206.294 224.805 207.233 221.904C208.172 218.917 208.982 216.357 209.665 214.224C211.286 209.445 213.206 204.368 215.425 198.992C217.729 193.616 220.033 188.411 222.337 183.376C224.726 178.341 226.86 173.861 228.737 169.936C230.614 166.011 232.022 163.152 232.961 161.36C233.302 160.677 233.601 160.037 233.857 159.44C234.198 158.843 234.54 158.288 234.881 157.776C234.028 157.861 233.217 157.989 232.449 158.16C231.681 158.245 230.956 158.331 230.273 158.416C226.518 158.928 222.593 159.781 218.497 160.976C214.486 162.085 210.86 163.493 207.617 165.2C204.374 166.907 202.028 168.997 200.577 171.472C200.492 171.728 200.321 171.856 200.065 171.856C199.894 171.856 199.766 171.685 199.681 171.344C199.51 171.003 199.468 170.619 199.553 170.192C200.406 167.973 201.473 165.84 202.753 163.792C204.033 161.744 205.27 160.123 206.465 158.928C208.342 156.965 210.902 155.557 214.145 154.704C217.388 153.851 220.716 153.296 224.129 153.04C227.628 152.784 230.614 152.656 233.089 152.656H259.329C267.948 152.656 274.86 154.277 280.065 157.52C285.356 160.763 289.196 165.029 291.585 170.32C293.974 175.611 295.169 181.328 295.169 187.472C295.169 188.923 295.126 190.373 295.041 191.824C294.956 193.275 294.785 194.725 294.529 196.176C293.249 203.941 290.732 210.853 286.977 216.912C283.308 222.885 278.742 227.92 273.281 232.016C267.82 236.112 261.676 239.227 254.849 241.36C248.108 243.408 241.025 244.432 233.601 244.432C231.638 244.432 229.633 244.347 227.585 244.176C225.537 244.091 223.489 243.877 221.441 243.536ZM224.641 238.544C225.75 238.629 226.86 238.757 227.969 238.928C229.078 239.013 230.188 239.056 231.297 239.056C237.356 239.056 243.073 237.989 248.449 235.856C253.91 233.723 258.817 230.736 263.169 226.896C267.606 223.056 271.361 218.619 274.433 213.584C277.505 208.549 279.724 203.088 281.089 197.2C282.028 193.275 282.497 189.52 282.497 185.936C282.497 182.096 281.9 178.427 280.705 174.928C279.596 171.344 277.761 168.144 275.201 165.328C272.897 162.768 269.825 160.805 265.985 159.44C262.145 157.989 258.604 157.136 255.361 156.88C254.593 156.795 253.825 156.752 253.057 156.752C252.289 156.667 251.521 156.624 250.753 156.624C249.217 158.672 247.638 161.104 246.017 163.92C244.396 166.651 242.817 169.467 241.281 172.368C239.83 175.269 238.55 177.915 237.441 180.304C234.54 186.533 231.809 192.763 229.249 198.992C226.689 205.221 224.385 211.579 222.337 218.064C221.74 219.941 221.142 222.075 220.545 224.464C219.948 226.853 219.649 229.072 219.649 231.12C219.649 232.997 219.99 234.661 220.673 236.112C221.441 237.477 222.764 238.288 224.641 238.544Z"/>
</mask>
<path d="M131.54 242C130.175 242 129.151 241.445 128.468 240.336C127.871 239.227 127.572 237.776 127.572 235.984C127.572 233.509 127.956 230.608 128.724 227.28C129.577 223.952 130.601 220.496 131.796 216.912C133.076 213.328 134.356 209.915 135.636 206.672C136.916 203.344 138.025 200.528 138.964 198.224H131.924C131.241 198.224 130.9 197.968 130.9 197.456C130.9 196.944 131.284 196.261 132.052 195.408C132.82 194.469 133.716 193.659 134.74 192.976C135.764 192.293 136.617 191.952 137.3 191.952H141.652C143.785 186.917 145.791 182.224 147.668 177.872C149.545 173.435 151.892 168.741 154.708 163.792C155.391 162.597 156.031 161.488 156.628 160.464C157.225 159.355 157.908 158.373 158.676 157.52C154.068 158.117 149.332 159.013 144.468 160.208C139.689 161.403 135.423 162.939 131.668 164.816C127.913 166.693 125.268 168.912 123.732 171.472C123.647 171.728 123.476 171.856 123.22 171.856C123.049 171.856 122.921 171.685 122.836 171.344C122.665 171.003 122.623 170.619 122.708 170.192C123.561 167.973 124.628 165.84 125.908 163.792C127.188 161.744 128.425 160.123 129.62 158.928C131.497 156.965 134.057 155.557 137.3 154.704C140.543 153.851 143.871 153.296 147.284 153.04C150.783 152.784 153.769 152.656 156.244 152.656H181.588C184.575 152.656 187.22 152.571 189.524 152.4C191.913 152.144 193.919 152.016 195.54 152.016C198.185 152.016 199.721 152.656 200.148 153.936C200.233 154.277 200.276 154.619 200.276 154.96C200.361 155.216 200.404 155.557 200.404 155.984C200.404 157.691 200.02 159.653 199.252 161.872C198.484 164.005 197.631 166.096 196.692 168.144C195.839 170.107 195.156 171.728 194.644 173.008C194.559 173.435 194.303 173.733 193.876 173.904C193.535 174.075 193.193 174.16 192.852 174.16C192.425 174.16 192.041 174.075 191.7 173.904C191.444 173.733 191.359 173.179 191.444 172.24C191.615 171.216 191.828 170.064 192.084 168.784C192.34 167.504 192.468 166.395 192.468 165.456C192.468 162.725 191.359 160.635 189.14 159.184C187.007 157.648 184.319 156.88 181.076 156.88C178.687 156.88 176.724 157.093 175.188 157.52C173.652 157.861 172.415 158.757 171.476 160.208C168.063 165.243 164.948 170.405 162.132 175.696C159.401 180.987 156.841 186.405 154.452 191.952H187.86C188.116 191.952 187.945 192.464 187.348 193.488C186.836 194.512 186.153 195.579 185.3 196.688C184.532 197.712 183.849 198.224 183.252 198.224H151.636C150.697 200.613 149.588 203.515 148.308 206.928C147.028 210.341 145.833 213.712 144.724 217.04C143.7 220.368 142.889 223.227 142.292 225.616C141.78 227.664 141.524 229.499 141.524 231.12C141.524 233.253 142.164 234.875 143.444 235.984C144.809 237.093 147.156 237.648 150.484 237.648C155.092 237.648 159.7 237.477 164.308 237.136C168.916 236.709 173.439 235.856 177.876 234.576C181.716 233.467 185.129 231.973 188.116 230.096C191.188 228.219 193.407 225.872 194.772 223.056C194.943 222.715 195.199 222.544 195.54 222.544C196.137 222.544 196.436 223.013 196.436 223.952C196.436 224.123 196.393 224.336 196.308 224.592C196.308 224.848 196.265 225.147 196.18 225.488C195.497 227.707 194.687 229.669 193.748 231.376C192.809 233.083 191.828 234.533 190.804 235.728C188.415 238.629 185.343 240.421 181.588 241.104C177.833 241.701 174.079 242 170.324 242H131.54ZM221.441 243.536C218.966 243.109 216.662 242.512 214.529 241.744C212.396 240.891 210.561 239.824 209.025 238.544C207.916 237.52 207.105 236.325 206.593 234.96C206.081 233.509 205.825 231.973 205.825 230.352C205.825 227.621 206.294 224.805 207.233 221.904C208.172 218.917 208.982 216.357 209.665 214.224C211.286 209.445 213.206 204.368 215.425 198.992C217.729 193.616 220.033 188.411 222.337 183.376C224.726 178.341 226.86 173.861 228.737 169.936C230.614 166.011 232.022 163.152 232.961 161.36C233.302 160.677 233.601 160.037 233.857 159.44C234.198 158.843 234.54 158.288 234.881 157.776C234.028 157.861 233.217 157.989 232.449 158.16C231.681 158.245 230.956 158.331 230.273 158.416C226.518 158.928 222.593 159.781 218.497 160.976C214.486 162.085 210.86 163.493 207.617 165.2C204.374 166.907 202.028 168.997 200.577 171.472C200.492 171.728 200.321 171.856 200.065 171.856C199.894 171.856 199.766 171.685 199.681 171.344C199.51 171.003 199.468 170.619 199.553 170.192C200.406 167.973 201.473 165.84 202.753 163.792C204.033 161.744 205.27 160.123 206.465 158.928C208.342 156.965 210.902 155.557 214.145 154.704C217.388 153.851 220.716 153.296 224.129 153.04C227.628 152.784 230.614 152.656 233.089 152.656H259.329C267.948 152.656 274.86 154.277 280.065 157.52C285.356 160.763 289.196 165.029 291.585 170.32C293.974 175.611 295.169 181.328 295.169 187.472C295.169 188.923 295.126 190.373 295.041 191.824C294.956 193.275 294.785 194.725 294.529 196.176C293.249 203.941 290.732 210.853 286.977 216.912C283.308 222.885 278.742 227.92 273.281 232.016C267.82 236.112 261.676 239.227 254.849 241.36C248.108 243.408 241.025 244.432 233.601 244.432C231.638 244.432 229.633 244.347 227.585 244.176C225.537 244.091 223.489 243.877 221.441 243.536ZM224.641 238.544C225.75 238.629 226.86 238.757 227.969 238.928C229.078 239.013 230.188 239.056 231.297 239.056C237.356 239.056 243.073 237.989 248.449 235.856C253.91 233.723 258.817 230.736 263.169 226.896C267.606 223.056 271.361 218.619 274.433 213.584C277.505 208.549 279.724 203.088 281.089 197.2C282.028 193.275 282.497 189.52 282.497 185.936C282.497 182.096 281.9 178.427 280.705 174.928C279.596 171.344 277.761 168.144 275.201 165.328C272.897 162.768 269.825 160.805 265.985 159.44C262.145 157.989 258.604 157.136 255.361 156.88C254.593 156.795 253.825 156.752 253.057 156.752C252.289 156.667 251.521 156.624 250.753 156.624C249.217 158.672 247.638 161.104 246.017 163.92C244.396 166.651 242.817 169.467 241.281 172.368C239.83 175.269 238.55 177.915 237.441 180.304C234.54 186.533 231.809 192.763 229.249 198.992C226.689 205.221 224.385 211.579 222.337 218.064C221.74 219.941 221.142 222.075 220.545 224.464C219.948 226.853 219.649 229.072 219.649 231.12C219.649 232.997 219.99 234.661 220.673 236.112C221.441 237.477 222.764 238.288 224.641 238.544Z" fill="#EEEEEE"/>
<path d="M128.468 240.336L124.066 242.706L124.134 242.834L124.21 242.956L128.468 240.336ZM128.724 227.28L123.881 226.038L123.866 226.097L123.852 226.156L128.724 227.28ZM131.796 216.912L127.087 215.23L127.069 215.28L127.053 215.331L131.796 216.912ZM135.636 206.672L140.287 208.508L140.295 208.487L140.303 208.467L135.636 206.672ZM138.964 198.224L143.594 200.11L146.4 193.224H138.964V198.224ZM132.052 195.408L135.768 198.753L135.847 198.665L135.922 198.574L132.052 195.408ZM134.74 192.976L137.513 197.136H137.514L134.74 192.976ZM141.652 191.952V196.952H144.964L146.256 193.903L141.652 191.952ZM147.668 177.872L152.259 179.852L152.266 179.836L152.273 179.82L147.668 177.872ZM154.708 163.792L150.367 161.311L150.362 161.319L154.708 163.792ZM156.628 160.464L160.947 162.983L160.99 162.91L161.03 162.834L156.628 160.464ZM158.676 157.52L162.392 160.865L171.428 150.825L158.033 152.561L158.676 157.52ZM144.468 160.208L143.275 155.352L143.265 155.355L143.255 155.357L144.468 160.208ZM131.668 164.816L129.432 160.344H129.432L131.668 164.816ZM123.732 171.472L119.445 168.9L119.162 169.37L118.989 169.891L123.732 171.472ZM122.836 171.344L127.687 170.131L127.554 169.599L127.308 169.108L122.836 171.344ZM122.708 170.192L118.041 168.397L117.889 168.794L117.805 169.211L122.708 170.192ZM125.908 163.792L130.148 166.442H130.148L125.908 163.792ZM129.62 158.928L133.156 162.464L133.195 162.424L133.233 162.384L129.62 158.928ZM137.3 154.704L138.572 159.539L137.3 154.704ZM147.284 153.04L146.919 148.053L146.91 148.054L147.284 153.04ZM189.524 152.4L189.893 157.386L189.975 157.38L190.057 157.372L189.524 152.4ZM200.148 153.936L204.999 152.723L204.952 152.537L204.891 152.355L200.148 153.936ZM200.276 154.96H195.276V155.771L195.533 156.541L200.276 154.96ZM199.252 161.872L203.956 163.566L203.967 163.537L203.977 163.508L199.252 161.872ZM196.692 168.144L192.147 166.061L192.126 166.105L192.107 166.15L196.692 168.144ZM194.644 173.008L190.002 171.151L189.831 171.577L189.741 172.027L194.644 173.008ZM193.876 173.904L192.019 169.262L191.826 169.339L191.64 169.432L193.876 173.904ZM191.7 173.904L188.926 178.064L189.186 178.237L189.464 178.376L191.7 173.904ZM191.444 172.24L186.512 171.418L186.481 171.602L186.465 171.787L191.444 172.24ZM192.084 168.784L187.181 167.803L187.181 167.803L192.084 168.784ZM189.14 159.184L186.218 163.242L186.31 163.307L186.404 163.369L189.14 159.184ZM175.188 157.52L176.273 162.401L176.4 162.373L176.526 162.338L175.188 157.52ZM171.476 160.208L175.615 163.014L175.645 162.969L175.674 162.924L171.476 160.208ZM162.132 175.696L157.718 173.347L157.703 173.375L157.689 173.403L162.132 175.696ZM154.452 191.952L149.86 189.974L146.854 196.952H154.452V191.952ZM187.348 193.488L183.029 190.969L182.948 191.108L182.876 191.252L187.348 193.488ZM185.3 196.688L181.337 193.639L181.318 193.664L181.3 193.688L185.3 196.688ZM151.636 198.224V193.224H148.228L146.982 196.396L151.636 198.224ZM148.308 206.928L143.626 205.172L148.308 206.928ZM144.724 217.04L139.981 215.459L139.962 215.514L139.945 215.57L144.724 217.04ZM142.292 225.616L137.441 224.403L142.292 225.616ZM143.444 235.984L140.169 239.762L140.229 239.814L140.291 239.865L143.444 235.984ZM164.308 237.136L164.677 242.122L164.723 242.119L164.769 242.115L164.308 237.136ZM177.876 234.576L179.262 239.38L179.264 239.38L177.876 234.576ZM188.116 230.096L185.509 225.83L185.482 225.846L185.455 225.863L188.116 230.096ZM194.772 223.056L190.3 220.82L190.286 220.847L190.273 220.875L194.772 223.056ZM196.308 224.592L191.565 223.011L191.308 223.781V224.592H196.308ZM196.18 225.488L200.959 226.958L200.998 226.831L201.031 226.701L196.18 225.488ZM193.748 231.376L189.367 228.966L189.367 228.966L193.748 231.376ZM190.804 235.728L187.008 232.474L186.976 232.511L186.944 232.549L190.804 235.728ZM181.588 241.104L182.374 246.042L182.428 246.033L182.482 246.023L181.588 241.104ZM131.54 237C131.537 237 131.6 237 131.711 237.026C131.825 237.052 131.971 237.102 132.129 237.188C132.476 237.375 132.664 237.614 132.726 237.716L124.21 242.956C125.854 245.629 128.54 247 131.54 247V237ZM132.87 237.965C132.796 237.827 132.572 237.277 132.572 235.984H122.572C122.572 238.275 122.945 240.626 124.066 242.706L132.87 237.965ZM132.572 235.984C132.572 234 132.883 231.492 133.596 228.404L123.852 226.156C123.029 229.724 122.572 233.019 122.572 235.984H132.572ZM133.567 228.522C134.389 225.319 135.378 221.976 136.539 218.493L127.053 215.331C125.824 219.016 124.766 222.585 123.881 226.038L133.567 228.522ZM136.505 218.594C137.768 215.057 139.029 211.695 140.287 208.508L130.985 204.836C129.683 208.134 128.384 211.599 127.087 215.23L136.505 218.594ZM140.303 208.467C141.576 205.158 142.672 202.374 143.594 200.11L134.334 196.338C133.378 198.682 132.256 201.53 130.969 204.877L140.303 208.467ZM138.964 193.224H131.924V203.224H138.964V193.224ZM131.924 193.224C132.063 193.224 133.08 193.225 134.156 194.032C135.503 195.042 135.9 196.492 135.9 197.456H125.9C125.9 198.932 126.468 200.766 128.156 202.032C129.574 203.095 131.102 203.224 131.924 203.224V193.224ZM135.9 197.456C135.9 197.949 135.809 198.332 135.732 198.57C135.656 198.808 135.576 198.958 135.546 199.011C135.495 199.101 135.528 199.02 135.768 198.753L128.336 192.063C127.808 192.649 127.265 193.336 126.83 194.109C126.422 194.835 125.9 196.003 125.9 197.456H135.9ZM135.922 198.574C136.371 198.025 136.896 197.548 137.513 197.136L131.967 188.816C130.536 189.769 129.269 190.914 128.182 192.242L135.922 198.574ZM137.514 197.136C137.664 197.036 137.783 196.965 137.87 196.917C137.913 196.894 137.946 196.877 137.97 196.866C137.981 196.861 137.99 196.857 137.996 196.854C137.999 196.853 138.001 196.852 138.003 196.851C138.004 196.851 138.005 196.85 138.005 196.85C138.005 196.85 138.004 196.851 138.003 196.851C138.001 196.852 137.999 196.853 137.995 196.854C137.989 196.856 137.979 196.86 137.966 196.864C137.939 196.872 137.897 196.884 137.841 196.897C137.729 196.922 137.544 196.952 137.3 196.952V186.952C135.114 186.952 133.24 187.967 131.966 188.816L137.514 197.136ZM137.3 196.952H141.652V186.952H137.3V196.952ZM146.256 193.903C148.386 188.877 150.387 184.193 152.259 179.852L143.077 175.892C141.195 180.255 139.185 184.958 137.048 190.001L146.256 193.903ZM152.273 179.82C154.062 175.591 156.318 171.074 159.054 166.265L150.362 161.319C147.466 166.409 145.029 171.278 143.063 175.924L152.273 179.82ZM159.049 166.273C159.726 165.089 160.358 163.993 160.947 162.983L152.309 157.945C151.703 158.983 151.056 160.106 150.367 161.311L159.049 166.273ZM161.03 162.834C161.457 162.042 161.916 161.395 162.392 160.865L154.96 154.175C153.9 155.352 152.994 156.667 152.226 158.093L161.03 162.834ZM158.033 152.561C153.227 153.185 148.307 154.117 143.275 155.352L145.661 165.064C150.357 163.91 154.909 163.05 159.319 162.479L158.033 152.561ZM143.255 155.357C138.182 156.626 133.563 158.278 129.432 160.344L133.904 169.288C137.282 167.599 141.197 166.18 145.681 165.059L143.255 155.357ZM129.432 160.344C125.157 162.481 121.63 165.256 119.445 168.9L128.019 174.044C128.906 172.568 130.669 170.905 133.904 169.288L129.432 160.344ZM118.989 169.891C119.182 169.31 119.62 168.45 120.54 167.76C121.483 167.053 122.489 166.856 123.22 166.856V176.856C124.207 176.856 125.427 176.595 126.54 175.76C127.631 174.942 128.196 173.89 128.475 173.053L118.989 169.891ZM123.22 166.856C125.099 166.856 126.378 167.903 126.996 168.728C127.509 169.412 127.659 170.022 127.687 170.131L117.985 172.557C118.098 173.008 118.355 173.874 118.996 174.728C119.742 175.723 121.17 176.856 123.22 176.856V166.856ZM127.308 169.108C127.703 169.898 127.712 170.669 127.611 171.173L117.805 169.211C117.534 170.568 117.627 172.107 118.364 173.58L127.308 169.108ZM127.375 171.987C128.112 170.071 129.035 168.224 130.148 166.442L121.668 161.142C120.221 163.456 119.011 165.876 118.041 168.397L127.375 171.987ZM130.148 166.442C131.305 164.59 132.315 163.304 133.156 162.464L126.084 155.392C124.535 156.942 123.071 158.898 121.668 161.142L130.148 166.442ZM133.233 162.384C134.338 161.229 136.014 160.213 138.572 159.539L136.028 149.869C132.101 150.902 128.657 152.702 126.007 155.472L133.233 162.384ZM138.572 159.539C141.515 158.765 144.542 158.26 147.658 158.026L146.91 148.054C143.2 148.332 139.571 148.936 136.028 149.869L138.572 159.539ZM147.649 158.027C151.072 157.776 153.93 157.656 156.244 157.656V147.656C153.609 147.656 150.494 147.792 146.919 148.053L147.649 158.027ZM156.244 157.656H181.588V147.656H156.244V157.656ZM181.588 157.656C184.664 157.656 187.437 157.568 189.893 157.386L189.155 147.414C187.003 147.573 184.485 147.656 181.588 147.656V157.656ZM190.057 157.372C192.345 157.126 194.159 157.016 195.54 157.016V147.016C193.678 147.016 191.482 147.162 188.991 147.428L190.057 157.372ZM195.54 157.016C196.008 157.016 196.34 157.045 196.56 157.078C196.784 157.113 196.828 157.143 196.753 157.111C196.672 157.078 196.417 156.957 196.124 156.67C195.811 156.364 195.554 155.965 195.405 155.517L204.891 152.355C204.117 150.03 202.364 148.616 200.599 147.881C198.969 147.201 197.178 147.016 195.54 147.016V157.016ZM195.297 155.149C195.287 155.106 195.276 155.04 195.276 154.96H205.276C205.276 154.197 205.18 153.449 204.999 152.723L195.297 155.149ZM195.533 156.541C195.447 156.285 195.42 156.1 195.411 156.028C195.401 155.951 195.404 155.931 195.404 155.984H205.404C205.404 155.294 205.344 154.352 205.019 153.379L195.533 156.541ZM195.404 155.984C195.404 156.968 195.176 158.361 194.527 160.236L203.977 163.508C204.864 160.946 205.404 158.413 205.404 155.984H195.404ZM194.548 160.178C193.827 162.181 193.026 164.141 192.147 166.061L201.237 170.227C202.235 168.051 203.141 165.83 203.956 163.566L194.548 160.178ZM192.107 166.15C191.243 168.137 190.539 169.808 190.002 171.151L199.286 174.865C199.773 173.648 200.434 172.077 201.277 170.138L192.107 166.15ZM189.741 172.027C189.848 171.492 190.105 170.866 190.592 170.298C191.071 169.739 191.61 169.425 192.019 169.262L195.733 178.546C197.623 177.79 199.109 176.181 199.547 173.989L189.741 172.027ZM191.64 169.432C191.91 169.297 192.33 169.16 192.852 169.16V179.16C194.057 179.16 195.159 178.853 196.112 178.376L191.64 169.432ZM192.852 169.16C193.109 169.16 193.505 169.216 193.936 169.432L189.464 178.376C190.578 178.933 191.742 179.16 192.852 179.16V169.16ZM194.474 169.744C195.364 170.337 195.834 171.086 196.064 171.575C196.289 172.053 196.361 172.438 196.386 172.6C196.433 172.903 196.396 172.991 196.423 172.693L186.465 171.787C186.406 172.427 186.37 173.262 186.502 174.12C186.596 174.733 186.97 176.76 188.926 178.064L194.474 169.744ZM196.376 173.062C196.536 172.102 196.739 171.005 196.987 169.765L187.181 167.803C186.917 169.123 186.693 170.33 186.512 171.418L196.376 173.062ZM196.987 169.765C197.284 168.277 197.468 166.823 197.468 165.456H187.468C187.468 165.966 187.396 166.731 187.181 167.803L196.987 169.765ZM197.468 165.456C197.468 161.099 195.558 157.406 191.876 154.999L186.404 163.369C187.159 163.863 187.468 164.352 187.468 165.456H197.468ZM192.062 155.126C188.896 152.847 185.119 151.88 181.076 151.88V161.88C183.519 161.88 185.118 162.449 186.218 163.242L192.062 155.126ZM181.076 151.88C178.436 151.88 175.98 152.111 173.85 152.702L176.526 162.338C177.468 162.076 178.938 161.88 181.076 161.88V151.88ZM174.103 152.639C171.154 153.294 168.853 155.057 167.278 157.492L175.674 162.924C175.976 162.457 176.15 162.428 176.273 162.401L174.103 152.639ZM167.337 157.402C163.826 162.582 160.619 167.897 157.718 173.347L166.546 178.045C169.277 172.914 172.3 167.903 175.615 163.014L167.337 157.402ZM157.689 173.403C154.904 178.798 152.295 184.322 149.86 189.974L159.044 193.93C161.388 188.489 163.898 183.175 166.575 177.989L157.689 173.403ZM154.452 196.952H187.86V186.952H154.452V196.952ZM187.86 196.952C187.065 196.952 185.814 196.742 184.682 195.772C183.559 194.81 183.165 193.622 183.04 192.87C182.921 192.158 182.994 191.598 183.036 191.346C183.084 191.059 183.148 190.852 183.181 190.755C183.271 190.484 183.31 190.488 183.029 190.969L191.667 196.007C191.984 195.464 192.407 194.7 192.667 193.917C192.747 193.68 193.13 192.579 192.904 191.226C192.768 190.41 192.35 189.174 191.19 188.18C190.021 187.178 188.719 186.952 187.86 186.952V196.952ZM182.876 191.252C182.535 191.935 182.036 192.73 181.337 193.639L189.263 199.737C190.27 198.427 191.137 197.089 191.82 195.724L182.876 191.252ZM181.3 193.688C181.073 193.99 181.036 193.972 181.212 193.84C181.377 193.716 182.093 193.224 183.252 193.224V203.224C185.009 203.224 186.364 202.476 187.212 201.84C188.071 201.196 188.759 200.41 189.3 199.688L181.3 193.688ZM183.252 193.224H151.636V203.224H183.252V193.224ZM146.982 196.396C146.031 198.817 144.912 201.744 143.626 205.172L152.99 208.684C154.264 205.285 155.364 202.41 156.29 200.052L146.982 196.396ZM143.626 205.172C142.326 208.641 141.11 212.07 139.981 215.459L149.467 218.621C150.556 215.354 151.73 212.041 152.99 208.684L143.626 205.172ZM139.945 215.57C138.905 218.951 138.067 221.9 137.441 224.403L147.143 226.829C147.712 224.553 148.495 221.785 149.503 218.51L139.945 215.57ZM137.441 224.403C136.858 226.736 136.524 228.988 136.524 231.12H146.524C146.524 230.009 146.702 228.592 147.143 226.829L137.441 224.403ZM136.524 231.12C136.524 234.298 137.52 237.466 140.169 239.762L146.719 232.206C146.705 232.194 146.688 232.185 146.655 232.1C146.611 231.989 146.524 231.695 146.524 231.12H136.524ZM140.291 239.865C143.053 242.109 146.896 242.648 150.484 242.648V232.648C149.072 232.648 148.063 232.528 147.378 232.366C146.681 232.201 146.52 232.041 146.597 232.103L140.291 239.865ZM150.484 242.648C155.216 242.648 159.947 242.473 164.677 242.122L163.939 232.15C159.453 232.482 154.968 232.648 150.484 232.648V242.648ZM164.769 242.115C169.689 241.659 174.522 240.747 179.262 239.38L176.49 229.772C172.356 230.965 168.143 231.76 163.847 232.157L164.769 242.115ZM179.264 239.38C183.494 238.157 187.346 236.486 190.777 234.329L185.455 225.863C182.913 227.461 179.938 228.776 176.488 229.772L179.264 239.38ZM190.723 234.362C194.487 232.063 197.428 229.039 199.271 225.237L190.273 220.875C189.385 222.705 187.889 224.375 185.509 225.83L190.723 234.362ZM199.244 225.292C199.033 225.715 198.616 226.332 197.866 226.832C197.084 227.354 196.244 227.544 195.54 227.544V217.544C194.494 217.544 193.356 217.82 192.318 218.512C191.312 219.183 190.682 220.056 190.3 220.82L199.244 225.292ZM195.54 227.544C195.027 227.544 194.335 227.44 193.612 227.061C192.874 226.674 192.34 226.125 191.994 225.58C191.669 225.07 191.541 224.619 191.489 224.374C191.436 224.124 191.436 223.967 191.436 223.952H201.436C201.436 223.113 201.332 221.628 200.43 220.212C199.285 218.412 197.397 217.544 195.54 217.544V227.544ZM191.436 223.952C191.436 223.633 191.475 223.392 191.501 223.259C191.529 223.121 191.557 223.035 191.565 223.011L201.051 226.173C201.22 225.668 201.436 224.879 201.436 223.952H191.436ZM191.308 224.592C191.308 224.446 191.32 224.346 191.326 224.301C191.333 224.255 191.337 224.245 191.329 224.275L201.031 226.701C201.181 226.099 201.308 225.377 201.308 224.592H191.308ZM191.401 224.018C190.8 225.97 190.114 227.609 189.367 228.966L198.129 233.786C199.26 231.73 200.194 229.443 200.959 226.958L191.401 224.018ZM189.367 228.966C188.556 230.44 187.763 231.593 187.008 232.474L194.6 238.982C195.893 237.474 197.062 235.725 198.129 233.786L189.367 228.966ZM186.944 232.549C185.319 234.523 183.305 235.71 180.694 236.185L182.482 246.023C187.381 245.133 191.51 242.736 194.664 238.907L186.944 232.549ZM180.802 236.166C177.304 236.723 173.812 237 170.324 237V247C174.345 247 178.362 246.68 182.374 246.042L180.802 236.166ZM170.324 237H131.54V247H170.324V237ZM221.441 243.536L220.591 248.463L220.605 248.466L220.619 248.468L221.441 243.536ZM214.529 241.744L212.672 246.386L212.753 246.419L212.835 246.448L214.529 241.744ZM209.025 238.544L205.634 242.218L205.727 242.304L205.824 242.385L209.025 238.544ZM206.593 234.96L201.878 236.624L201.894 236.67L201.911 236.716L206.593 234.96ZM207.233 221.904L211.99 223.443L211.997 223.423L212.003 223.403L207.233 221.904ZM209.665 214.224L204.93 212.618L204.916 212.659L204.903 212.7L209.665 214.224ZM215.425 198.992L210.829 197.022L210.816 197.053L210.803 197.085L215.425 198.992ZM222.337 183.376L217.82 181.232L217.805 181.264L217.79 181.295L222.337 183.376ZM232.961 161.36L237.39 163.68L237.412 163.638L237.433 163.596L232.961 161.36ZM233.857 159.44L229.516 156.959L229.374 157.208L229.261 157.47L233.857 159.44ZM234.881 157.776L239.041 160.549L244.909 151.748L234.383 152.801L234.881 157.776ZM232.449 158.16L233.001 163.129L233.27 163.1L233.534 163.041L232.449 158.16ZM230.273 158.416L229.653 153.455L229.625 153.458L229.597 153.462L230.273 158.416ZM218.497 160.976L219.83 165.795L219.864 165.786L219.897 165.776L218.497 160.976ZM207.617 165.2L209.946 169.625L207.617 165.2ZM200.577 171.472L196.264 168.943L195.999 169.395L195.834 169.891L200.577 171.472ZM199.681 171.344L204.532 170.131L204.399 169.599L204.153 169.108L199.681 171.344ZM199.553 170.192L194.886 168.397L194.734 168.794L194.65 169.211L199.553 170.192ZM202.753 163.792L206.993 166.442H206.993L202.753 163.792ZM206.465 158.928L210.001 162.464L210.04 162.424L210.078 162.384L206.465 158.928ZM214.145 154.704L215.417 159.539L214.145 154.704ZM224.129 153.04L223.764 148.053L223.755 148.054L224.129 153.04ZM280.065 157.52L277.421 161.764L277.437 161.774L277.452 161.783L280.065 157.52ZM291.585 170.32L287.028 172.378V172.378L291.585 170.32ZM295.041 191.824L300.032 192.118V192.118L295.041 191.824ZM294.529 196.176L289.605 195.307L289.6 195.335L289.596 195.363L294.529 196.176ZM286.977 216.912L282.727 214.278L282.722 214.287L282.717 214.295L286.977 216.912ZM254.849 241.36L256.302 246.144L256.321 246.138L256.34 246.132L254.849 241.36ZM227.585 244.176L228 239.193L227.897 239.185L227.793 239.18L227.585 244.176ZM224.641 238.544L223.965 243.498L224.111 243.518L224.258 243.529L224.641 238.544ZM227.969 238.928L227.209 243.87L227.396 243.899L227.586 243.913L227.969 238.928ZM248.449 235.856L246.63 231.199L246.617 231.204L246.605 231.209L248.449 235.856ZM263.169 226.896L259.897 223.115L259.879 223.131L259.861 223.147L263.169 226.896ZM274.433 213.584L270.165 210.98L274.433 213.584ZM281.089 197.2L276.226 196.037L276.222 196.054L276.218 196.071L281.089 197.2ZM280.705 174.928L275.929 176.406L275.95 176.475L275.973 176.544L280.705 174.928ZM275.201 165.328L271.485 168.673L271.493 168.682L271.501 168.691L275.201 165.328ZM265.985 159.44L264.218 164.117L264.264 164.135L264.31 164.151L265.985 159.44ZM255.361 156.88L254.809 161.849L254.888 161.858L254.967 161.864L255.361 156.88ZM253.057 156.752L252.505 161.721L252.78 161.752H253.057V156.752ZM250.753 156.624V151.624H248.253L246.753 153.624L250.753 156.624ZM246.017 163.92L250.316 166.473L250.333 166.444L250.35 166.415L246.017 163.92ZM241.281 172.368L236.862 170.029L236.835 170.08L236.809 170.132L241.281 172.368ZM237.441 180.304L241.974 182.415L241.976 182.41L237.441 180.304ZM229.249 198.992L224.624 197.091L229.249 198.992ZM222.337 218.064L227.102 219.58L227.105 219.57L222.337 218.064ZM220.545 224.464L215.694 223.251L220.545 224.464ZM220.673 236.112L216.149 238.241L216.226 238.405L216.315 238.563L220.673 236.112ZM222.291 238.609C220.073 238.226 218.054 237.699 216.223 237.04L212.835 246.448C215.27 247.325 217.86 247.992 220.591 248.463L222.291 238.609ZM216.386 237.102C214.669 236.415 213.304 235.601 212.226 234.703L205.824 242.385C207.818 244.047 210.123 245.367 212.672 246.386L216.386 237.102ZM212.416 234.87C211.86 234.357 211.503 233.812 211.275 233.204L201.911 236.716C202.708 238.839 203.971 240.683 205.634 242.218L212.416 234.87ZM211.308 233.296C210.995 232.408 210.825 231.437 210.825 230.352H200.825C200.825 232.509 201.167 234.611 201.878 236.624L211.308 233.296ZM210.825 230.352C210.825 228.201 211.194 225.905 211.99 223.443L202.476 220.365C201.395 223.706 200.825 227.042 200.825 230.352H210.825ZM212.003 223.403C212.94 220.422 213.748 217.87 214.427 215.748L204.903 212.7C204.217 214.844 203.403 217.413 202.463 220.405L212.003 223.403ZM214.4 215.83C215.982 211.167 217.863 206.191 220.047 200.899L210.803 197.085C208.55 202.545 206.591 207.723 204.93 212.618L214.4 215.83ZM220.021 200.962C222.31 195.621 224.597 190.452 226.884 185.457L217.79 181.295C215.469 186.369 213.148 191.611 210.829 197.022L220.021 200.962ZM226.854 185.52C229.242 180.488 231.373 176.013 233.248 172.093L224.226 167.779C222.346 171.71 220.211 176.194 217.82 181.232L226.854 185.52ZM233.248 172.093C235.121 168.175 236.496 165.386 237.39 163.68L228.532 159.04C227.548 160.918 226.107 163.846 224.226 167.779L233.248 172.093ZM237.433 163.596C237.811 162.84 238.152 162.111 238.453 161.41L229.261 157.47C229.05 157.964 228.794 158.514 228.489 159.124L237.433 163.596ZM238.198 161.921C238.489 161.412 238.77 160.956 239.041 160.549L230.721 155.003C230.309 155.62 229.908 156.274 229.516 156.959L238.198 161.921ZM234.383 152.801C233.35 152.904 232.342 153.062 231.364 153.279L233.534 163.041C234.092 162.917 234.705 162.819 235.379 162.751L234.383 152.801ZM231.897 153.191C231.109 153.278 230.361 153.366 229.653 153.455L230.893 163.377C231.551 163.295 232.253 163.213 233.001 163.129L231.897 153.191ZM229.597 153.462C225.57 154.011 221.401 154.921 217.097 156.176L219.897 165.776C223.785 164.642 227.467 163.845 230.949 163.37L229.597 153.462ZM217.164 156.157C212.854 157.349 208.887 158.881 205.288 160.775L209.946 169.625C212.832 168.105 216.119 166.822 219.83 165.795L217.164 156.157ZM205.288 160.775C201.446 162.797 198.3 165.469 196.264 168.943L204.89 174.001C205.755 172.526 207.302 171.016 209.946 169.625L205.288 160.775ZM195.834 169.891C196.027 169.31 196.465 168.45 197.385 167.76C198.328 167.053 199.334 166.856 200.065 166.856V176.856C201.052 176.856 202.272 176.595 203.385 175.76C204.476 174.942 205.041 173.89 205.32 173.053L195.834 169.891ZM200.065 166.856C201.944 166.856 203.223 167.903 203.841 168.728C204.354 169.412 204.504 170.022 204.532 170.131L194.83 172.557C194.943 173.008 195.2 173.874 195.841 174.728C196.587 175.723 198.015 176.856 200.065 176.856V166.856ZM204.153 169.108C204.548 169.898 204.557 170.669 204.456 171.173L194.65 169.211C194.379 170.568 194.472 172.107 195.209 173.58L204.153 169.108ZM204.22 171.987C204.957 170.071 205.88 168.224 206.993 166.442L198.513 161.142C197.066 163.456 195.856 165.876 194.886 168.397L204.22 171.987ZM206.993 166.442C208.15 164.59 209.16 163.304 210.001 162.464L202.929 155.392C201.38 156.942 199.916 158.898 198.513 161.142L206.993 166.442ZM210.078 162.384C211.183 161.229 212.859 160.213 215.417 159.539L212.873 149.869C208.946 150.902 205.502 152.702 202.852 155.472L210.078 162.384ZM215.417 159.539C218.36 158.765 221.387 158.26 224.503 158.026L223.755 148.054C220.045 148.332 216.416 148.936 212.873 149.869L215.417 159.539ZM224.494 158.027C227.917 157.776 230.775 157.656 233.089 157.656V147.656C230.454 147.656 227.339 147.792 223.764 148.053L224.494 158.027ZM233.089 157.656H259.329V147.656H233.089V157.656ZM259.329 157.656C267.375 157.656 273.269 159.177 277.421 161.764L282.709 153.276C276.451 149.378 268.52 147.656 259.329 147.656V157.656ZM277.452 161.783C281.95 164.54 285.08 168.065 287.028 172.378L296.142 168.262C293.311 161.994 288.761 156.985 282.678 153.257L277.452 161.783ZM287.028 172.378C289.109 176.984 290.169 181.995 290.169 187.472H300.169C300.169 180.661 298.84 174.237 296.142 168.262L287.028 172.378ZM290.169 187.472C290.169 188.825 290.129 190.177 290.05 191.53L300.032 192.118C300.123 190.569 300.169 189.021 300.169 187.472H290.169ZM290.05 191.53C289.976 192.786 289.828 194.044 289.605 195.307L299.453 197.045C299.742 195.407 299.936 193.764 300.032 192.118L290.05 191.53ZM289.596 195.363C288.411 202.55 286.103 208.831 282.727 214.278L291.227 219.546C295.361 212.876 298.087 205.333 299.462 196.989L289.596 195.363ZM282.717 214.295C279.368 219.747 275.225 224.308 270.281 228.016L276.281 236.016C282.259 231.532 287.248 226.024 291.237 219.529L282.717 214.295ZM270.281 228.016C265.296 231.754 259.667 234.616 253.358 236.588L256.34 246.132C263.684 243.838 270.343 240.47 276.281 236.016L270.281 228.016ZM253.396 236.576C247.15 238.473 240.559 239.432 233.601 239.432V249.432C241.491 249.432 249.065 248.343 256.302 246.144L253.396 236.576ZM233.601 239.432C231.783 239.432 229.917 239.353 228 239.193L227.17 249.159C229.349 249.34 231.493 249.432 233.601 249.432V239.432ZM227.793 239.18C225.954 239.104 224.111 238.912 222.263 238.604L220.619 248.468C222.867 248.843 225.12 249.078 227.377 249.172L227.793 239.18ZM224.258 243.529C225.24 243.605 226.223 243.718 227.209 243.87L228.729 233.986C227.496 233.796 226.261 233.654 225.024 233.559L224.258 243.529ZM227.586 243.913C228.822 244.008 230.059 244.056 231.297 244.056V234.056C230.316 234.056 229.335 234.018 228.352 233.943L227.586 243.913ZM231.297 244.056C237.957 244.056 244.303 242.881 250.293 240.503L246.605 231.209C241.843 233.098 236.755 234.056 231.297 234.056V244.056ZM250.268 240.513C256.27 238.169 261.681 234.877 266.477 230.645L259.861 223.147C255.953 226.595 251.551 229.276 246.63 231.199L250.268 240.513ZM266.441 230.677C271.271 226.497 275.361 221.662 278.701 216.188L270.165 210.98C267.361 215.575 263.942 219.615 259.897 223.115L266.441 230.677ZM278.701 216.188C282.059 210.686 284.477 204.725 285.96 198.329L276.218 196.071C274.971 201.451 272.952 206.413 270.165 210.98L278.701 216.188ZM285.952 198.363C286.97 194.104 287.497 189.957 287.497 185.936H277.497C277.497 189.083 277.085 192.446 276.226 196.037L285.952 198.363ZM287.497 185.936C287.497 181.568 286.816 177.351 285.437 173.312L275.973 176.544C276.983 179.502 277.497 182.624 277.497 185.936H287.497ZM285.481 173.45C284.152 169.156 281.946 165.314 278.901 161.965L271.501 168.691C273.576 170.974 275.039 173.532 275.929 176.406L285.481 173.45ZM278.917 161.983C275.963 158.701 272.14 156.322 267.66 154.729L264.31 164.151C267.51 165.289 269.831 166.835 271.485 168.673L278.917 161.983ZM267.752 154.763C263.581 153.187 259.571 152.197 255.755 151.896L254.967 161.864C257.636 162.075 260.709 162.792 264.218 164.117L267.752 154.763ZM255.913 151.911C254.963 151.805 254.011 151.752 253.057 151.752V161.752C253.639 161.752 254.223 161.784 254.809 161.849L255.913 151.911ZM253.609 151.783C252.659 151.677 251.707 151.624 250.753 151.624V161.624C251.335 161.624 251.919 161.656 252.505 161.721L253.609 151.783ZM246.753 153.624C245.069 155.87 243.381 158.478 241.684 161.425L250.35 166.415C251.896 163.73 253.365 161.474 254.753 159.624L246.753 153.624ZM241.718 161.367C240.053 164.17 238.435 167.058 236.862 170.029L245.7 174.707C247.199 171.876 248.738 169.131 250.316 166.473L241.718 161.367ZM236.809 170.132C235.341 173.067 234.04 175.757 232.906 178.198L241.976 182.41C243.061 180.073 244.319 177.472 245.753 174.604L236.809 170.132ZM232.909 178.193C229.975 184.49 227.214 190.79 224.624 197.091L233.874 200.893C236.404 194.736 239.104 188.576 241.973 182.415L232.909 178.193ZM224.624 197.091C222.011 203.452 219.659 209.941 217.569 216.558L227.105 219.57C229.111 213.217 231.367 206.991 233.874 200.893L224.624 197.091ZM217.572 216.548C216.936 218.547 216.311 220.784 215.694 223.251L225.396 225.677C225.974 223.365 226.543 221.336 227.102 219.58L217.572 216.548ZM215.694 223.251C215.017 225.96 214.649 228.591 214.649 231.12H224.649C224.649 229.553 224.878 227.747 225.396 225.677L215.694 223.251ZM214.649 231.12C214.649 233.608 215.104 236.02 216.149 238.241L225.197 233.983C224.877 233.303 224.649 232.386 224.649 231.12H214.649ZM216.315 238.563C218.015 241.585 220.9 243.08 223.965 243.498L225.317 233.59C224.916 233.535 224.809 233.453 224.854 233.481C224.876 233.495 224.916 233.524 224.959 233.568C225.001 233.612 225.024 233.648 225.031 233.661L216.315 238.563Z" fill="#3D3D3D" mask="url(#path-3-outside-1_2_9)"/>
</g>
</g>
</svg>
